<svg width="38" height="40" viewBox="0 0 38 40" fill="none" xmlns="http://www.w3.org/2000/svg">
<path d="M11.596 10.5V30H6.266V12.372L8.762 14.686L0.364 16.168V12.008L7.644 10.5H11.596Z" fill="white"/>
<path opacity="0.4" d="M23.24 15H25.72L20.4 32.62H17.92L23.24 15ZM31.4567 30.2C28.2167 30.2 26.2367 27.94 26.2367 25.54H29.1367C29.1967 26.62 30.1367 27.56 31.4767 27.56C32.7567 27.56 33.8567 26.64 33.8567 25.16C33.8567 23.7 32.8367 22.8 31.5167 22.8C30.5367 22.8 29.5567 23.28 29.1967 24.2H26.3367L27.6367 15.8H35.7567V18.36H29.9167L29.4967 21.16C30.1767 20.6 31.0967 20.32 32.1367 20.32C34.8567 20.32 36.7567 22.3 36.7567 25.06C36.7567 27.8 34.7367 30.2 31.4567 30.2Z" fill="white"/>
</svg>
