<svg width="51" height="51" viewBox="0 0 51 51" fill="none" xmlns="http://www.w3.org/2000/svg">
<path d="M4.76761 16.1459V21.0878C4.76761 21.7744 5.32364 22.3309 6.00946 22.3309H10.5973M4.76761 16.1459L4.76731 13.8387C4.767 10.2759 6.15272 6.92635 8.66942 4.40689C11.1861 1.88753 14.5321 0.500002 18.0911 0.500002C25.4376 0.500002 31.4147 6.48284 31.4151 13.8367L31.4153 16.1459C31.4154 17.5741 30.2589 18.7319 28.8321 18.7319M4.76761 16.1459C4.76781 17.5742 5.92455 18.7319 7.35131 18.7319M37.7228 4.47577H46.3475M37.7228 7.79967H46.3475M6.46791 45.5183V50.5M18.0911 3.1396C16.6959 3.1396 15.3629 3.40607 14.1399 3.89057C13.8763 4.3103 13.737 4.79621 13.7379 5.29199C13.7414 9.25407 16.9528 12.4633 20.9109 12.7982L28.7762 12.7922C28.2264 7.37046 23.6523 3.1396 18.0911 3.1396ZM18.0911 3.1396C24.0226 3.1396 28.8313 7.95274 28.8316 13.8904L28.8323 22.9021C28.8325 25.8369 26.4559 28.216 23.5242 28.216H22.5897M18.0911 3.1396C12.159 3.1396 7.3501 7.95375 7.3506 13.8921L7.35171 22.9032C7.35211 25.8375 9.72847 28.216 12.6598 28.216H13.6191M25.8284 18.7319H28.8327M7.3506 18.7319H10.3602M10.3035 12.7924C10.312 12.7924 10.3202 12.7918 10.3287 12.7917H7.45312M10.3035 12.7924C12.6127 12.7904 14.4831 10.9149 14.4812 8.60341M10.3035 12.7924L10.3333 18.1231C10.3343 19.3085 10.6211 20.3732 11.0899 21.3113M13.0071 23.7986C14.7199 25.3563 16.8489 26.19 18.1012 26.2158C20.446 26.1634 25.8596 23.2746 25.8551 18.1098L25.8639 12.7944M38.5512 0.5H37.0946C35.1482 0.5 33.5703 2.07957 33.5703 4.02783V8.26594C33.5703 9.93524 34.7286 11.3336 36.2845 11.7C36.7609 11.8122 37.0917 12.2466 37.0917 12.7365V15.8356C37.0917 16.1468 37.4893 16.2762 37.6721 16.0245L40.4262 12.2342C40.5252 12.0977 40.6551 11.9867 40.8052 11.9102C40.9554 11.8337 41.1215 11.7938 41.2899 11.7938H46.9759C48.9222 11.7938 50.5 10.2143 50.5 8.26594V4.02783C50.5 2.07957 48.9222 0.5 46.9759 0.5H42.0352M29.224 31.4894L24.6073 30.2207C23.3506 29.8754 22.4792 28.7323 22.478 27.4278L22.4754 24.3846M13.7246 24.3926L13.7273 27.4353C13.7284 28.7399 12.8595 29.8843 11.6034 30.2317L6.9662 31.5147M6.9662 31.5147C9.1991 35.3388 13.3433 37.9083 18.0875 37.9083C18.3251 37.9083 18.5606 37.9002 18.7949 37.8874M6.9662 31.5147L4.74095 32.1303C2.2332 32.8241 0.497789 35.1089 0.500002 37.7133L0.509458 48.6938C0.510263 49.6921 1.31942 50.5007 2.3168 50.4999L18.0696 50.4862M35.0611 35.0005C34.3341 33.614 33.0567 32.5425 31.4718 32.1071L29.2239 31.4893C28.4445 32.8297 27.4309 34.019 26.2314 35.0005M18.7949 44.0505V47.6404M41.4912 47.6404V36.3979C41.4912 35.6261 40.8663 35.0005 40.0953 35.0005H20.1908C19.4199 35.0005 18.7949 35.6261 18.7949 36.3979V40.5234M15.0285 23.7986H12.011C11.2302 23.7986 10.5973 23.1651 10.5973 22.3834C10.5973 21.6019 11.2302 20.9684 12.011 20.9684H15.0285C15.8093 20.9684 16.4423 21.6019 16.4423 22.3834C16.4423 23.1651 15.8093 23.7986 15.0285 23.7986ZM42.0299 50.4999H18.2563C17.4676 50.4999 16.8281 49.8598 16.8281 49.0702C16.8281 48.2805 17.4676 47.6404 18.2563 47.6404H42.0299C42.8187 47.6404 43.4581 48.2805 43.4581 49.0702C43.4581 49.8598 42.8187 50.4999 42.0299 50.4999Z" stroke="#1F1F1F" stroke-miterlimit="10" stroke-linecap="round" stroke-linejoin="round"/>
</svg>
