<svg width="18" height="18" viewBox="0 0 18 18" fill="none" xmlns="http://www.w3.org/2000/svg">
<g opacity="0.3">
<path d="M13.1303 10.7304L13.1235 10.7866C11.4743 9.96464 11.3018 9.85515 11.0888 10.1746C10.941 10.3959 10.5105 10.8976 10.3808 11.0461C10.2495 11.1924 10.119 11.2036 9.89625 11.1024C9.67125 10.9899 8.949 10.7536 8.094 9.98864C7.428 9.3924 6.981 8.66117 6.849 8.43617C6.62925 8.05668 7.089 8.00268 7.5075 7.21069C7.5825 7.0532 7.54425 6.92945 7.48875 6.8177C7.4325 6.7052 6.98475 5.60272 6.79725 5.16323C6.61725 4.72524 6.432 4.78074 6.29325 4.78074C5.86125 4.74324 5.5455 4.74924 5.26725 5.03873C4.05675 6.36921 4.362 7.74168 5.39775 9.20116C7.43325 11.8651 8.51775 12.3556 10.5008 13.0366C11.0363 13.2068 11.5245 13.1828 11.9108 13.1273C12.3413 13.0591 13.236 12.5866 13.4228 12.0579C13.614 11.5291 13.614 11.0904 13.5578 10.9891C13.5023 10.8879 13.3553 10.8316 13.1303 10.7304Z" fill="white"/>
<path d="M15.39 2.58703C9.62325 -2.98762 0.0795 1.05556 0.07575 8.91991C0.07575 10.4919 0.4875 12.0249 1.272 13.3786L0 18L4.75125 16.761C10.68 19.9635 17.997 15.711 18 8.92441C18 6.54246 17.07 4.30075 15.3787 2.61628L15.39 2.58703ZM16.5015 8.89966C16.497 14.6243 10.2128 18.1995 5.2425 15.2776L4.9725 15.1171L2.16 15.8483L2.91375 13.1146L2.7345 12.8333C-0.3585 7.90968 3.195 1.4748 9.054 1.4748C11.0445 1.4748 12.9128 2.25103 14.3198 3.65726C15.726 5.05148 16.5015 6.9197 16.5015 8.89966Z" fill="white"/>
</g>
</svg>
