<svg width="46" height="46" viewBox="0 0 46 46" fill="none" xmlns="http://www.w3.org/2000/svg">
<circle cx="23" cy="23" r="23" fill="#0A0A0A"/>
<path d="M23 22.3571C25.4 22.3571 27.3455 20.4863 27.3455 18.1786C27.3455 15.8708 25.4 14 23 14C20.6 14 18.6545 15.8708 18.6545 18.1786C18.6545 20.4863 20.6 22.3571 23 22.3571Z" fill="white"/>
<path d="M16.0004 29.0879C15.9937 29.2807 16.0806 29.4736 16.2343 29.6021C18.133 31.145 20.5331 32 23 32C25.4669 32 27.867 31.145 29.7657 29.6021C29.9194 29.4736 30.0063 29.2807 29.9996 29.0879C29.8994 26.3943 28.1478 24.0221 25.5405 23.045C25.3881 22.9883 25.2197 22.986 25.0658 23.0386C23.7555 23.495 22.2445 23.495 20.9342 23.0386C20.7803 22.986 20.6119 22.9883 20.4595 23.045C17.8522 24.0221 16.1006 26.3943 16.0004 29.0879Z" fill="white"/>
</svg>
