<svg width="64" height="22" viewBox="0 0 64 22" fill="none" xmlns="http://www.w3.org/2000/svg">
<path d="M20.719 9.6L23.205 6.19H24.701V14H23.106C23.106 10.645 23.106 9.314 23.194 8.665L20.708 12.119L18.244 8.665C18.332 9.314 18.332 10.667 18.332 14H16.737V6.19H18.244L20.719 9.6ZM29.8531 14.11C27.5431 14.11 25.8601 12.416 25.8601 10.095C25.8601 7.774 27.5431 6.08 29.8531 6.08C32.1631 6.08 33.8461 7.774 33.8461 10.095C33.8461 12.416 32.1631 14.11 29.8531 14.11ZM29.8531 12.614C31.2721 12.614 32.2511 11.481 32.2511 10.095C32.2511 8.709 31.2721 7.576 29.8531 7.576C28.4451 7.576 27.4551 8.709 27.4551 10.095C27.4551 11.481 28.4451 12.614 29.8531 12.614ZM38.574 14.11C36.396 14.11 34.658 12.372 34.658 10.095C34.658 7.818 36.396 6.08 38.574 6.08C39.806 6.08 40.565 6.509 40.851 6.729V8.28C40.642 8.049 39.938 7.532 38.772 7.532C37.397 7.532 36.253 8.588 36.253 10.095C36.253 11.602 37.397 12.658 38.772 12.658C39.938 12.658 40.642 12.13 40.851 11.91V13.461C40.565 13.681 39.806 14.11 38.574 14.11ZM46.4108 6.19H48.2808L45.2558 10.007L48.2368 14H46.3008L43.6498 10.315C43.7158 10.997 43.7158 11.657 43.7158 14H42.1208V6.19H43.7158C43.7158 8.489 43.7158 9.083 43.6498 9.666L46.4108 6.19ZM52.4226 14H49.2106V6.19H52.2246C53.8856 6.19 54.8426 6.872 54.8426 8.137C54.8426 9.094 54.3476 9.589 53.8196 9.765C54.6776 9.919 55.2826 10.689 55.2826 11.657C55.2826 12.999 54.3036 14 52.4226 14ZM50.8056 7.554V9.358H52.2246C52.8296 9.358 53.2366 9.061 53.2366 8.456C53.2366 7.862 52.8296 7.554 52.2246 7.554H50.8056ZM50.8056 10.568V12.636H52.4226C53.1926 12.636 53.6766 12.24 53.6766 11.624C53.6766 10.975 53.1926 10.568 52.4446 10.568H50.8056ZM63.1555 14H61.4285L60.8455 12.284H57.9195C57.7435 12.801 57.5565 13.362 57.3475 14H55.6975L58.5025 6.19H60.3175L63.1555 14ZM58.3485 10.975H60.4055C59.6025 8.555 59.4045 7.84 59.3495 7.279C59.3055 7.84 59.1185 8.566 58.3485 10.975Z" fill="white"/>
<path d="M4.5 4C3.30694 4.00131 2.16312 4.46531 1.3195 5.29021C0.475876 6.11511 0.00133994 7.23353 0 8.40011C0 10.1904 1.32919 11.6771 2.73713 13.2507C3.18263 13.749 3.64388 14.2644 4.0545 14.7858C4.10705 14.8524 4.17454 14.9064 4.25177 14.9435C4.32901 14.9807 4.41393 15 4.5 15C4.58607 15 4.67099 14.9807 4.74823 14.9435C4.82546 14.9064 4.89295 14.8524 4.9455 14.7858C5.35612 14.2644 5.81737 13.749 6.26288 13.2507C7.67081 11.6771 9 10.1904 9 8.40011C8.99866 7.23353 8.52412 6.11511 7.6805 5.29021C6.83688 4.46531 5.69306 4.00131 4.5 4ZM4.5 10.0502C4.16624 10.0502 3.83998 9.95338 3.56248 9.77207C3.28497 9.59077 3.06868 9.33306 2.94095 9.03156C2.81323 8.73005 2.77981 8.39828 2.84492 8.07821C2.91004 7.75813 3.07076 7.46412 3.30676 7.23336C3.54276 7.0026 3.84344 6.84544 4.17079 6.78178C4.49813 6.71811 4.83743 6.75079 5.14578 6.87567C5.45413 7.00056 5.71768 7.21205 5.9031 7.4834C6.08853 7.75475 6.1875 8.07377 6.1875 8.40011C6.1875 8.83773 6.00971 9.25743 5.69324 9.56687C5.37678 9.87631 4.94755 10.0502 4.5 10.0502Z" fill="url(#paint0_linear_7806_420)"/>
<defs>
<linearGradient id="paint0_linear_7806_420" x1="2.23517e-08" y1="11.5625" x2="9.46275" y2="8.33656" gradientUnits="userSpaceOnUse">
<stop stop-color="#9F7437"/>
<stop offset="1" stop-color="#E3D293"/>
</linearGradient>
</defs>
</svg>
