<svg width="54" height="22" viewBox="0 0 54 22" fill="none" xmlns="http://www.w3.org/2000/svg">
<path d="M23.073 6.19V12.559H23.942V15.166H22.523V14H17.441V15.166H16.022V12.559H16.803C17.089 12.559 17.254 12.009 17.276 11.118L17.386 6.19H23.073ZM18.497 12.559H21.467V7.631H18.893L18.816 11.019C18.794 11.998 18.574 12.548 18.497 12.559ZM29.0151 6.19H30.6871L27.1671 14H25.5611L26.4851 11.932L23.7791 6.19H25.5391C26.7821 9.017 27.1451 9.875 27.2991 10.557C27.4531 9.886 27.7941 9.039 29.0151 6.19ZM33.1025 9.072H34.6645C36.5455 9.072 37.4805 10.007 37.4805 11.558C37.4805 13.131 36.2705 14 34.6645 14H31.5075V6.19H36.7985V7.631H33.1025V9.072ZM33.1025 12.548H34.6645C35.3685 12.548 35.8745 12.185 35.8745 11.514C35.8745 10.843 35.3685 10.48 34.6645 10.48H33.1025V12.548ZM45.4094 14H43.6824L43.0994 12.284H40.1734C39.9974 12.801 39.8104 13.362 39.6014 14H37.9514L40.7564 6.19H42.5714L45.4094 14ZM40.6024 10.975H42.6594C41.8564 8.555 41.6584 7.84 41.6034 7.279C41.5594 7.84 41.3724 8.566 40.6024 10.975ZM49.7192 5.684C48.8282 5.684 47.7502 5.222 47.7502 3.913H48.9492C48.9492 4.276 49.1582 4.672 49.7192 4.672C50.2912 4.672 50.4892 4.276 50.4892 3.913H51.6992C51.6992 5.222 50.6212 5.684 49.7192 5.684ZM51.5892 6.19H53.0742V14H51.4792C51.4792 10.315 51.4902 8.885 51.6442 8.104C51.1822 9.105 50.3022 10.392 47.8382 14H46.3532V6.19H47.9482C47.9482 9.93 47.9262 11.382 47.7832 12.141C48.2012 11.173 49.0812 9.886 51.5892 6.19Z" fill="#A6A6A6"/>
<path d="M4.5 4C3.30694 4.00131 2.16312 4.46531 1.3195 5.29021C0.475876 6.11511 0.00133994 7.23353 0 8.40011C0 10.1904 1.32919 11.6771 2.73713 13.2507C3.18263 13.749 3.64388 14.2644 4.0545 14.7858C4.10705 14.8524 4.17454 14.9064 4.25177 14.9435C4.32901 14.9807 4.41393 15 4.5 15C4.58607 15 4.67099 14.9807 4.74823 14.9435C4.82546 14.9064 4.89295 14.8524 4.9455 14.7858C5.35612 14.2644 5.81737 13.749 6.26288 13.2507C7.67081 11.6771 9 10.1904 9 8.40011C8.99866 7.23353 8.52412 6.11511 7.6805 5.29021C6.83688 4.46531 5.69306 4.00131 4.5 4ZM4.5 10.0502C4.16624 10.0502 3.83998 9.95338 3.56248 9.77207C3.28497 9.59077 3.06868 9.33306 2.94095 9.03156C2.81323 8.73005 2.77981 8.39828 2.84492 8.07821C2.91004 7.75813 3.07076 7.46412 3.30676 7.23336C3.54276 7.0026 3.84344 6.84544 4.17079 6.78178C4.49813 6.71811 4.83743 6.75079 5.14578 6.87567C5.45413 7.00056 5.71768 7.21205 5.9031 7.4834C6.08853 7.75475 6.1875 8.07377 6.1875 8.40011C6.1875 8.83773 6.00971 9.25743 5.69324 9.56687C5.37678 9.87631 4.94755 10.0502 4.5 10.0502Z" fill="#5A5A5A"/>
</svg>
