<svg width="229" height="20" viewBox="0 0 229 20" fill="none" xmlns="http://www.w3.org/2000/svg">
<path d="M24.9307 9.09985L23.721 6.46442C23.6574 6.32593 23.5534 6.20821 23.4216 6.12556C23.2897 6.04291 23.1357 5.99891 22.9784 5.99891H20.9734C20.7581 5.99891 20.5517 6.08118 20.3994 6.22762C20.2472 6.37407 20.1617 6.57269 20.1617 6.77979V8.01078H19.538V6.99792C19.538 6.79081 19.4525 6.59219 19.3002 6.44575C19.148 6.29931 18.9415 6.21703 18.7262 6.21703H16.565V4.08626C16.565 3.87916 16.4795 3.68054 16.3272 3.53409C16.175 3.38765 15.9685 3.30538 15.7532 3.30538H11.7599V2.56177H15.7532C15.9685 2.56177 16.175 2.4795 16.3272 2.33305C16.4795 2.18661 16.565 1.98799 16.565 1.78088C16.565 1.57378 16.4795 1.37516 16.3272 1.22872C16.175 1.08227 15.9685 1 15.7532 1H6.14323C5.92793 1 5.72146 1.08227 5.56922 1.22872C5.41699 1.37516 5.33146 1.57378 5.33146 1.78088C5.33146 1.98799 5.41699 2.18661 5.56922 2.33305C5.72146 2.4795 5.92793 2.56177 6.14323 2.56177H10.1366V3.30538H6.14323C5.92793 3.30538 5.72146 3.38765 5.56922 3.53409C5.41699 3.68054 5.33146 3.87916 5.33146 4.08626V4.73533H3.55055C3.33526 4.73533 3.12879 4.8176 2.97655 4.96405C2.82431 5.11049 2.73879 5.30911 2.73879 5.51622V9.70665H1.62353V5.51622C1.62353 5.30911 1.53801 5.11049 1.38577 4.96405C1.23354 4.8176 1.02706 4.73533 0.811766 4.73533C0.596472 4.73533 0.389996 4.8176 0.237761 4.96405C0.085525 5.11049 0 5.30911 0 5.51622V15.4591C0 15.8904 0.363455 16.2399 0.811766 16.2399C1.26008 16.2399 1.62353 15.8904 1.62353 15.4591V11.2684H2.73879V15.4591C2.73879 15.6662 2.82431 15.8648 2.97655 16.0112C3.12879 16.1577 3.33526 16.2399 3.55055 16.2399H6.70443L9.90906 18.8181C10.0551 18.9356 10.2395 19 10.4299 19H18.7264C18.9416 19 19.1481 18.9177 19.3004 18.7713C19.4526 18.6248 19.5381 18.4262 19.5381 18.2191V16.0904H20.1618V17.3214C20.1618 17.5285 20.2473 17.7271 20.3995 17.8736C20.5518 18.02 20.7582 18.1023 20.9735 18.1023H22.9785C23.1359 18.1023 23.2898 18.0583 23.4217 17.9756C23.5535 17.893 23.6575 17.7753 23.7211 17.6368L24.9308 15.0014C24.9764 14.902 25 14.7946 25 14.686V9.41522C25 9.30661 24.9764 9.19919 24.9307 9.09985ZM23.3765 14.5214L22.4496 16.5406H21.7853V15.3096C21.7853 15.1025 21.6998 14.9039 21.5475 14.7575C21.3953 14.611 21.1888 14.5288 20.9735 14.5288H18.7264C18.5111 14.5288 18.3046 14.611 18.1523 14.7575C18.0001 14.9039 17.9146 15.1025 17.9146 15.3096V17.4383H10.7245L7.51987 14.8602C7.37382 14.7426 7.18946 14.6783 6.99904 14.6783H4.36232V6.2971H6.14323C6.24983 6.2971 6.35539 6.2769 6.45388 6.23766C6.55236 6.19842 6.64185 6.1409 6.71723 6.06838C6.79261 5.99587 6.8524 5.90979 6.8932 5.81505C6.93399 5.72031 6.95499 5.61876 6.95499 5.51622V4.86715H14.9416V6.99813C14.9416 7.20523 15.0271 7.40385 15.1793 7.55029C15.3316 7.69674 15.538 7.77901 15.7533 7.77901H17.9146V8.79187C17.9146 8.99897 18.0001 9.19759 18.1523 9.34404C18.3046 9.49048 18.5111 9.57275 18.7264 9.57275H20.9735C21.1888 9.57275 21.3953 9.49048 21.5475 9.34404C21.6998 9.19759 21.7853 8.99897 21.7853 8.79187V7.56078H22.4496L23.3765 9.58004V14.5214Z" fill="#727272"/>
<path d="M42.353 12.232H46.864V14H40.403V12.765C40.403 9.372 44.966 9.398 44.966 7.5C44.966 6.876 44.511 6.356 43.679 6.356C42.899 6.356 42.34 6.863 42.288 7.63H40.403C40.403 5.966 41.794 4.64 43.731 4.64C45.421 4.64 46.851 5.667 46.851 7.539C46.851 10.581 42.925 10.503 42.353 12.232ZM47.9108 15.326L48.6778 12.362H50.5758L49.3538 15.326H47.9108ZM56.9466 9.099C57.6356 9.463 58.1426 10.165 58.1426 11.296C58.1426 12.687 56.9986 14.13 54.8536 14.13C52.7086 14.13 51.3566 12.817 51.3566 10.997H53.1896C53.1896 12.05 53.9956 12.414 54.7496 12.414C55.6986 12.414 56.2576 11.933 56.2576 11.192C56.2576 10.386 55.6206 10.074 54.6326 10.074H53.9176V8.449H54.6846C55.6466 8.397 55.9196 7.812 55.9196 7.396C55.9196 6.772 55.4386 6.356 54.6846 6.356C53.9176 6.356 53.2806 6.837 53.2806 7.669H51.4476C51.4476 6.005 52.6566 4.64 54.7756 4.64C56.5696 4.64 57.8046 5.745 57.8046 7.24C57.8046 8.033 57.4666 8.657 56.9466 9.099ZM61.4739 14.052L61.4869 12.414C61.9809 12.401 62.4489 12.102 62.4489 11.192V7.201H68.1299V14H66.2969V8.852H64.2299V11.205C64.2299 13.103 63.1119 14.104 61.4739 14.052ZM72.2371 4.25H73.8491L70.3911 15.703H68.7791L72.2371 4.25ZM78.1239 7.396C80.0089 7.396 81.3999 8.722 81.3999 10.711C81.3999 12.713 79.9049 14.117 77.8249 14.117C75.7839 14.117 74.2369 12.778 74.2369 10.269V9.06C74.2369 6.85 75.3549 5.147 77.5779 4.757L80.6719 4.211V5.784L77.9029 6.291C76.6809 6.512 76.0959 7.227 76.0049 8.514C76.4859 7.643 77.3699 7.396 78.1239 7.396ZM77.8379 12.453C78.8649 12.453 79.5799 11.738 79.5799 10.698C79.5799 9.671 78.8649 8.943 77.8379 8.943C76.7979 8.943 76.0699 9.671 76.0699 10.698C76.0699 11.738 76.7979 12.453 77.8379 12.453ZM85.5146 7.058C87.5816 7.058 89.1026 8.449 89.0246 11.179H83.8636C83.9546 12.011 84.6956 12.609 85.6446 12.609C86.4376 12.609 87.0096 12.232 87.2826 11.699L88.8946 11.868C88.5306 13.155 87.2176 14.13 85.6316 14.13C83.5256 14.13 82.0046 12.726 82.0046 10.62C82.0046 8.579 83.4606 7.058 85.5146 7.058ZM85.5146 8.54C84.6046 8.54 83.9156 9.099 83.8506 9.892H87.1526C87.1006 9.099 86.4506 8.54 85.5146 8.54ZM94.8058 9.879V7.201H96.6258V14H94.8058V11.478H91.9068V14H90.0868V7.201H91.9068V9.879H94.8058ZM102.948 10.373C103.65 10.672 103.949 11.205 103.949 11.868C103.949 13.142 102.883 14.143 100.751 14.143C98.5797 14.143 97.6307 13.103 97.5657 11.764H99.3337C99.3337 12.349 99.9057 12.739 100.803 12.739C101.622 12.739 102.116 12.388 102.116 11.907C102.116 11.4 101.557 11.153 100.777 11.153H99.9707V9.879H100.634C101.076 9.879 101.817 9.788 101.817 9.203C101.817 8.735 101.362 8.462 100.647 8.462C99.8797 8.462 99.4117 8.813 99.4117 9.333H97.6307C97.7217 8.15 98.7097 7.058 100.751 7.058C102.558 7.058 103.637 7.903 103.637 9.112C103.637 9.567 103.481 10.048 102.948 10.373ZM106.748 11.426L109.92 7.201H111.597V14H109.777V9.879L106.618 14H104.928V7.201H106.748V11.426ZM117.734 9.879V7.201H119.554V14H117.734V11.478H114.835V14H113.015V7.201H114.835V9.879H117.734Z" fill="#707070"/>
<path d="M159.616 1H150.944C150.55 1 150.231 1.30606 150.231 1.68358C150.231 2.06109 150.55 2.36715 150.944 2.36715H154.649C153.869 2.83594 153.164 3.41152 152.557 4.07568H147.713C147.319 4.07572 147 4.38182 147 4.75934C147 5.13686 147.319 5.44292 147.713 5.44292H151.526C150.704 6.7804 150.231 8.33818 150.231 10C150.231 11.9337 150.871 13.7269 151.957 15.1955H149.935C149.541 15.1955 149.222 15.5016 149.222 15.8791C149.222 16.2566 149.541 16.5627 149.935 16.5627H153.201C153.646 16.9635 154.131 17.3219 154.649 17.6328H147.786C147.393 17.6328 147.074 17.9389 147.074 18.3164C147.074 18.6939 147.393 19 147.786 19H159.616C164.79 19 169 14.9626 169 9.99998C169 5.03738 164.79 1 159.616 1ZM159.616 17.6329C155.227 17.6329 151.657 14.2089 151.657 10.0001C151.657 5.79125 155.227 2.36719 159.616 2.36719C164.004 2.36719 167.574 5.79125 167.574 10C167.574 14.2088 164.004 17.6329 159.616 17.6329Z" fill="#727272"/>
<path d="M159.616 4.41653C156.405 4.41653 153.794 6.9213 153.794 10.0001C153.794 11.8361 154.723 13.4678 156.153 14.4861C156.166 14.4967 156.179 14.5074 156.194 14.5172C156.209 14.5283 156.226 14.5386 156.242 14.5483C157.195 15.1998 158.359 15.5836 159.616 15.5836C160.872 15.5836 162.037 15.1998 162.989 14.5483C163.006 14.5386 163.022 14.5283 163.038 14.5172C163.052 14.5074 163.065 14.4966 163.078 14.4861C164.509 13.4678 165.438 11.8361 165.438 10.0001C165.438 6.92134 162.826 4.41653 159.616 4.41653ZM160.328 5.83944C161.719 6.05789 162.893 6.90432 163.521 8.06448L161.675 8.63968C161.354 8.19466 160.881 7.85844 160.328 7.70056V5.83944H160.328ZM160.692 10C160.692 10.5691 160.209 11.0321 159.616 11.0321C159.022 11.0321 158.54 10.5692 158.54 10C158.54 9.43093 159.022 8.96795 159.616 8.96795C160.209 8.96795 160.692 9.43093 160.692 10ZM158.903 5.83944V7.70056C158.35 7.85844 157.877 8.19466 157.556 8.63968L155.711 8.06448C156.339 6.90432 157.512 6.05785 158.903 5.83944ZM156.49 12.9624C155.705 12.2004 155.219 11.1536 155.219 10C155.219 9.78401 155.236 9.57174 155.269 9.36438L157.116 9.93974C157.115 9.95985 157.114 9.9798 157.114 10C157.114 10.5479 157.307 11.0533 157.63 11.4576L156.49 12.9624ZM159.616 14.2164C158.907 14.2164 158.236 14.0544 157.643 13.7672L158.783 12.2622C159.044 12.3507 159.324 12.3994 159.616 12.3994C159.908 12.3994 160.188 12.3507 160.448 12.2622L161.589 13.7672C160.995 14.0543 160.325 14.2164 159.616 14.2164ZM162.741 12.9624L161.601 11.4577C161.924 11.0533 162.117 10.548 162.117 10.0001C162.117 9.97984 162.116 9.95989 162.116 9.93978L163.962 9.36442C163.995 9.5748 164.012 9.78729 164.012 10.0001C164.012 11.1536 163.526 12.2003 162.741 12.9624Z" fill="#727272"/>
<path d="M189.889 9.099C190.578 9.463 191.085 10.165 191.085 11.296C191.085 12.687 189.941 14.13 187.796 14.13C185.651 14.13 184.299 12.817 184.299 10.997H186.132C186.132 12.05 186.938 12.414 187.692 12.414C188.641 12.414 189.2 11.933 189.2 11.192C189.2 10.386 188.563 10.074 187.575 10.074H186.86V8.449H187.627C188.589 8.397 188.862 7.812 188.862 7.396C188.862 6.772 188.381 6.356 187.627 6.356C186.86 6.356 186.223 6.837 186.223 7.669H184.39C184.39 6.005 185.599 4.64 187.718 4.64C189.512 4.64 190.747 5.745 190.747 7.24C190.747 8.033 190.409 8.657 189.889 9.099ZM197.549 14H191.829V12.336H193.753V6.85L191.894 7.292V5.589L195.638 4.77V12.336H197.549V14ZM197.601 6.434V4.77H203.945V6.2L200.747 14H198.745L201.943 6.434H197.601ZM207.112 14.052L207.125 12.414C207.619 12.401 208.087 12.102 208.087 11.192V7.201H213.768V14H211.935V8.852H209.868V11.205C209.868 13.103 208.75 14.104 207.112 14.052ZM216.237 14.13C215.691 14.13 215.236 13.688 215.236 13.129C215.236 12.583 215.691 12.141 216.237 12.141C216.783 12.141 217.238 12.583 217.238 13.129C217.238 13.688 216.783 14.13 216.237 14.13ZM222.054 14.143C219.818 14.143 218.401 12.661 218.401 10.594C218.401 8.553 219.818 7.058 222.054 7.058C222.847 7.058 223.562 7.279 224.108 7.708V9.476C223.614 9.008 222.977 8.735 222.236 8.735C221.092 8.735 220.247 9.541 220.247 10.607C220.247 11.673 221.092 12.479 222.236 12.479C222.977 12.479 223.614 12.193 224.108 11.725V13.493C223.562 13.922 222.847 14.143 222.054 14.143ZM226.431 14.13C225.885 14.13 225.43 13.688 225.43 13.129C225.43 12.583 225.885 12.141 226.431 12.141C226.977 12.141 227.432 12.583 227.432 13.129C227.432 13.688 226.977 14.13 226.431 14.13Z" fill="#707070"/>
</svg>
