<svg width="492" height="44" viewBox="0 0 492 44" fill="none" xmlns="http://www.w3.org/2000/svg">
<g opacity="0.3">
<path d="M13.1303 23.7304L13.1235 23.7866C11.4743 22.9646 11.3018 22.8551 11.0888 23.1746C10.941 23.3959 10.5105 23.8976 10.3808 24.0461C10.2495 24.1924 10.119 24.2036 9.89625 24.1024C9.67125 23.9899 8.949 23.7536 8.094 22.9886C7.428 22.3924 6.981 21.6612 6.849 21.4362C6.62925 21.0567 7.089 21.0027 7.5075 20.2107C7.5825 20.0532 7.54425 19.9294 7.48875 19.8177C7.4325 19.7052 6.98475 18.6027 6.79725 18.1632C6.61725 17.7252 6.432 17.7807 6.29325 17.7807C5.86125 17.7432 5.5455 17.7492 5.26725 18.0387C4.05675 19.3692 4.362 20.7417 5.39775 22.2012C7.43325 24.8651 8.51775 25.3556 10.5008 26.0366C11.0363 26.2068 11.5245 26.1828 11.9108 26.1273C12.3413 26.0591 13.236 25.5866 13.4228 25.0579C13.614 24.5291 13.614 24.0904 13.5578 23.9891C13.5023 23.8879 13.3553 23.8316 13.1303 23.7304Z" fill="white"/>
<path d="M15.39 15.587C9.62325 10.0124 0.0795 14.0556 0.07575 21.9199C0.07575 23.4919 0.4875 25.0249 1.272 26.3786L0 31L4.75125 29.761C10.68 32.9635 17.997 28.711 18 21.9244C18 19.5425 17.07 17.3007 15.3787 15.6163L15.39 15.587ZM16.5015 21.8997C16.497 27.6243 10.2128 31.1995 5.2425 28.2776L4.9725 28.1171L2.16 28.8483L2.91375 26.1146L2.7345 25.8333C-0.3585 20.9097 3.195 14.4748 9.054 14.4748C11.0445 14.4748 12.9128 15.251 14.3198 16.6573C15.726 18.0515 16.5015 19.9197 16.5015 21.8997Z" fill="white"/>
</g>
<path opacity="0.3" d="M38.6707 24.2269L38.3894 28.1357C38.7918 28.1357 38.966 27.9649 39.175 27.7598L41.0613 25.9783L44.97 28.807C45.6869 29.2018 46.1919 28.9939 46.3853 28.1553L48.951 16.275L48.9517 16.2743C49.179 15.2271 48.5684 14.8176 47.87 15.0745L32.7892 20.7802C31.76 21.175 31.7756 21.7419 32.6143 21.9988L36.4698 23.1839L45.4255 17.6463C45.847 17.3705 46.2302 17.5231 45.915 17.7989L38.6707 24.2269Z" fill="white"/>
<path d="M113.248 27.668V17.588H115.912V27.668H113.248ZM109.54 23.96V21.296H119.62V23.96H109.54ZM122.376 29L129.81 17.408V18.452H120.396V15.5H133.212V18.47L126.642 29H122.376ZM141.978 15.5H144.84C144.084 16.868 143.52 18.188 143.148 19.46C142.788 20.72 142.608 21.98 142.608 23.24C142.608 24.476 142.788 25.73 143.148 27.002C143.52 28.262 144.084 29.588 144.84 30.98H141.978C140.922 29.756 140.13 28.508 139.602 27.236C139.074 25.964 138.81 24.632 138.81 23.24C138.81 21.848 139.074 20.516 139.602 19.244C140.13 17.972 140.922 16.724 141.978 15.5ZM157.269 15.5V29H153.579V17.138H154.713L147.693 24.896L147.675 23.726H159.429V26.48H144.957V23.852L152.553 15.5H157.269ZM167.373 29.288C166.209 29.288 165.171 29.114 164.259 28.766C163.359 28.406 162.627 27.92 162.063 27.308C161.511 26.696 161.175 26.018 161.055 25.274H164.493C164.673 25.634 164.979 25.94 165.411 26.192C165.855 26.444 166.473 26.57 167.265 26.57C168.165 26.57 168.903 26.408 169.479 26.084C170.055 25.748 170.481 25.274 170.757 24.662C171.045 24.038 171.189 23.282 171.189 22.394C171.189 21.422 171.033 20.606 170.721 19.946C170.409 19.286 169.953 18.788 169.353 18.452C168.765 18.116 168.051 17.948 167.211 17.948C166.611 17.948 166.113 18.032 165.717 18.2C165.321 18.356 165.015 18.572 164.799 18.848C164.595 19.124 164.493 19.436 164.493 19.784C164.493 20.144 164.589 20.456 164.781 20.72C164.985 20.984 165.279 21.194 165.663 21.35C166.047 21.494 166.527 21.566 167.103 21.566C167.871 21.566 168.603 21.398 169.299 21.062C170.007 20.726 170.643 20.228 171.207 19.568L172.467 20.432C172.107 21.176 171.627 21.842 171.027 22.43C170.439 23.006 169.743 23.462 168.939 23.798C168.135 24.134 167.211 24.302 166.167 24.302C165.051 24.302 164.085 24.116 163.269 23.744C162.465 23.372 161.847 22.856 161.415 22.196C160.983 21.536 160.761 20.774 160.749 19.91C160.761 18.998 161.019 18.188 161.523 17.48C162.027 16.772 162.765 16.22 163.737 15.824C164.709 15.416 165.885 15.212 167.265 15.212C168.921 15.212 170.295 15.512 171.387 16.112C172.491 16.712 173.319 17.54 173.871 18.596C174.423 19.652 174.693 20.864 174.681 22.232C174.693 23.6 174.423 24.818 173.871 25.886C173.319 26.942 172.497 27.776 171.405 28.388C170.325 28.988 168.981 29.288 167.373 29.288ZM182.807 29.288C181.643 29.288 180.605 29.114 179.693 28.766C178.793 28.406 178.061 27.92 177.497 27.308C176.945 26.696 176.609 26.018 176.489 25.274H179.927C180.107 25.634 180.413 25.94 180.845 26.192C181.289 26.444 181.907 26.57 182.699 26.57C183.599 26.57 184.337 26.408 184.913 26.084C185.489 25.748 185.915 25.274 186.191 24.662C186.479 24.038 186.623 23.282 186.623 22.394C186.623 21.422 186.467 20.606 186.155 19.946C185.843 19.286 185.387 18.788 184.787 18.452C184.199 18.116 183.485 17.948 182.645 17.948C182.045 17.948 181.547 18.032 181.151 18.2C180.755 18.356 180.449 18.572 180.233 18.848C180.029 19.124 179.927 19.436 179.927 19.784C179.927 20.144 180.023 20.456 180.215 20.72C180.419 20.984 180.713 21.194 181.097 21.35C181.481 21.494 181.961 21.566 182.537 21.566C183.305 21.566 184.037 21.398 184.733 21.062C185.441 20.726 186.077 20.228 186.641 19.568L187.901 20.432C187.541 21.176 187.061 21.842 186.461 22.43C185.873 23.006 185.177 23.462 184.373 23.798C183.569 24.134 182.645 24.302 181.601 24.302C180.485 24.302 179.519 24.116 178.703 23.744C177.899 23.372 177.281 22.856 176.849 22.196C176.417 21.536 176.195 20.774 176.183 19.91C176.195 18.998 176.453 18.188 176.957 17.48C177.461 16.772 178.199 16.22 179.171 15.824C180.143 15.416 181.319 15.212 182.699 15.212C184.355 15.212 185.729 15.512 186.821 16.112C187.925 16.712 188.753 17.54 189.305 18.596C189.857 19.652 190.127 20.864 190.115 22.232C190.127 23.6 189.857 24.818 189.305 25.886C188.753 26.942 187.931 27.776 186.839 28.388C185.759 28.988 184.415 29.288 182.807 29.288ZM193.556 15.5C194.624 16.724 195.416 17.972 195.932 19.244C196.46 20.516 196.724 21.848 196.724 23.24C196.724 24.632 196.46 25.964 195.932 27.236C195.416 28.508 194.624 29.756 193.556 30.98H190.694C191.462 29.588 192.026 28.262 192.386 27.002C192.746 25.73 192.926 24.476 192.926 23.24C192.926 21.98 192.746 20.72 192.386 19.46C192.026 18.188 191.462 16.868 190.694 15.5H193.556ZM209.841 15.5V29H206.151V16.796L207.879 18.398L202.065 19.424V16.544L207.104 15.5H209.841ZM219.192 15.5V29H215.502V16.796L217.23 18.398L211.416 19.424V16.544L216.456 15.5H219.192ZM228.85 29.288C227.314 29.288 225.976 29 224.836 28.424C223.696 27.836 222.814 27.014 222.19 25.958C221.578 24.902 221.272 23.666 221.272 22.25C221.272 20.834 221.578 19.598 222.19 18.542C222.814 17.486 223.696 16.67 224.836 16.094C225.976 15.506 227.314 15.212 228.85 15.212C230.374 15.212 231.7 15.506 232.828 16.094C233.968 16.67 234.85 17.486 235.474 18.542C236.098 19.598 236.41 20.834 236.41 22.25C236.41 23.666 236.098 24.902 235.474 25.958C234.85 27.014 233.968 27.836 232.828 28.424C231.7 29 230.374 29.288 228.85 29.288ZM228.85 26.264C230.062 26.264 231.004 25.916 231.676 25.22C232.348 24.512 232.684 23.522 232.684 22.25C232.684 20.966 232.348 19.976 231.676 19.28C231.004 18.584 230.062 18.236 228.85 18.236C227.638 18.236 226.69 18.584 226.006 19.28C225.322 19.976 224.98 20.966 224.98 22.25C224.98 23.522 225.322 24.512 226.006 25.22C226.69 25.916 227.638 26.264 228.85 26.264ZM238.134 21.26H242.868V24.158H238.134V21.26ZM244.278 20.36C244.35 19.304 244.698 18.392 245.322 17.624C245.946 16.844 246.774 16.25 247.806 15.842C248.85 15.422 250.026 15.212 251.334 15.212C252.582 15.212 253.668 15.404 254.592 15.788C255.528 16.16 256.254 16.682 256.77 17.354C257.286 18.026 257.544 18.806 257.544 19.694C257.544 20.378 257.358 21.02 256.986 21.62C256.614 22.208 256.032 22.79 255.24 23.366C254.448 23.93 253.41 24.524 252.126 25.148L248.418 27.002L248.274 26.048H257.922V29H244.566V26.408L250.362 23.15C251.262 22.634 251.958 22.202 252.45 21.854C252.954 21.494 253.308 21.164 253.512 20.864C253.728 20.564 253.836 20.246 253.836 19.91C253.836 19.538 253.734 19.22 253.53 18.956C253.338 18.68 253.044 18.464 252.648 18.308C252.252 18.152 251.766 18.074 251.19 18.074C250.47 18.074 249.882 18.182 249.426 18.398C248.97 18.602 248.628 18.878 248.4 19.226C248.172 19.562 248.034 19.94 247.986 20.36H244.278ZM267.029 29.288C265.493 29.288 264.155 29 263.015 28.424C261.875 27.836 260.993 27.014 260.369 25.958C259.757 24.902 259.451 23.666 259.451 22.25C259.451 20.834 259.757 19.598 260.369 18.542C260.993 17.486 261.875 16.67 263.015 16.094C264.155 15.506 265.493 15.212 267.029 15.212C268.553 15.212 269.879 15.506 271.007 16.094C272.147 16.67 273.029 17.486 273.653 18.542C274.277 19.598 274.589 20.834 274.589 22.25C274.589 23.666 274.277 24.902 273.653 25.958C273.029 27.014 272.147 27.836 271.007 28.424C269.879 29 268.553 29.288 267.029 29.288ZM267.029 26.264C268.241 26.264 269.183 25.916 269.855 25.22C270.527 24.512 270.863 23.522 270.863 22.25C270.863 20.966 270.527 19.976 269.855 19.28C269.183 18.584 268.241 18.236 267.029 18.236C265.817 18.236 264.869 18.584 264.185 19.28C263.501 19.976 263.159 20.966 263.159 22.25C263.159 23.522 263.501 24.512 264.185 25.22C264.869 25.916 265.817 26.264 267.029 26.264ZM276.314 21.26H281.048V24.158H276.314V21.26ZM294.765 15.5V29H291.075V17.138H292.209L285.189 24.896L285.171 23.726H296.925V26.48H282.453V23.852L290.049 15.5H294.765ZM299.124 29L306.558 17.408V18.452H297.144V15.5H309.96V18.47L303.39 29H299.124Z" fill="white"/>
<rect x="344" y="1" width="147" height="42" rx="7" stroke="#3C3C3C" stroke-width="2"/>
<path d="M369.643 21.047C370.527 21.385 371.06 22.152 371.06 23.218C371.06 24.921 369.643 26.13 367.225 26.13C364.534 26.13 363.338 24.908 363.338 22.997H365.171C365.171 24.089 366.198 24.44 367.225 24.44C368.434 24.44 369.162 23.946 369.162 23.192C369.162 22.386 368.395 22.074 367.082 22.074H366.25V20.449H367.134C368.564 20.397 368.785 19.799 368.785 19.396C368.785 18.746 368.109 18.33 367.134 18.33C366.12 18.33 365.301 18.811 365.301 19.669H363.455C363.455 17.888 364.846 16.64 367.238 16.64C369.253 16.64 370.67 17.589 370.67 19.24C370.67 20.046 370.345 20.722 369.643 21.047ZM377.448 20.241L377.76 19.201H379.32V26H377.448V24.83C377.123 25.636 376.226 26.13 375.095 26.13C373.028 26.13 371.806 24.518 371.806 22.581C371.806 20.566 373.093 19.058 375.186 19.058C376.057 19.058 376.941 19.448 377.448 20.202V20.241ZM375.576 24.479C376.655 24.479 377.448 23.686 377.448 22.594C377.448 21.515 376.655 20.735 375.576 20.735C374.458 20.735 373.678 21.502 373.678 22.594C373.678 23.699 374.458 24.479 375.576 24.479ZM384.184 22.386L387.278 26H385.094L382.481 22.841C382.559 23.569 382.572 24.518 382.572 26H380.726V19.201H382.572C382.572 20.67 382.572 21.411 382.507 21.905L385.081 19.201H387.252L384.184 22.386ZM392.632 20.241L392.944 19.201H394.504V26H392.632V24.83C392.307 25.636 391.41 26.13 390.279 26.13C388.212 26.13 386.99 24.518 386.99 22.581C386.99 20.566 388.277 19.058 390.37 19.058C391.241 19.058 392.125 19.448 392.632 20.202V20.241ZM390.76 24.479C391.839 24.479 392.632 23.686 392.632 22.594C392.632 21.515 391.839 20.735 390.76 20.735C389.642 20.735 388.862 21.502 388.862 22.594C388.862 23.699 389.642 24.479 390.76 24.479ZM400.811 22.373C401.513 22.672 401.812 23.205 401.812 23.868C401.812 25.142 400.746 26.143 398.614 26.143C396.443 26.143 395.494 25.103 395.429 23.764H397.197C397.197 24.349 397.769 24.739 398.666 24.739C399.485 24.739 399.979 24.388 399.979 23.907C399.979 23.4 399.42 23.153 398.64 23.153H397.834V21.879H398.497C398.939 21.879 399.68 21.788 399.68 21.203C399.68 20.735 399.225 20.462 398.51 20.462C397.743 20.462 397.275 20.813 397.275 21.333H395.494C395.585 20.15 396.573 19.058 398.614 19.058C400.421 19.058 401.5 19.903 401.5 21.112C401.5 21.567 401.344 22.048 400.811 22.373ZM408.095 20.241L408.407 19.201H409.967V26H408.095V24.83C407.77 25.636 406.873 26.13 405.742 26.13C403.675 26.13 402.453 24.518 402.453 22.581C402.453 20.566 403.74 19.058 405.833 19.058C406.704 19.058 407.588 19.448 408.095 20.202V20.241ZM406.223 24.479C407.302 24.479 408.095 23.686 408.095 22.594C408.095 21.515 407.302 20.735 406.223 20.735C405.105 20.735 404.325 21.502 404.325 22.594C404.325 23.699 405.105 24.479 406.223 24.479ZM414.48 26H412.647V20.852H410.762V19.201H416.378V20.852H414.48V26ZM418.982 21.177H420.594C422.18 21.177 423.246 22.113 423.246 23.595C423.246 25.064 422.18 26 420.594 26H417.162V19.201H418.982V21.177ZM418.982 24.44H420.386C421.023 24.44 421.426 24.128 421.426 23.595C421.426 23.036 421.023 22.724 420.386 22.724H418.982V24.44ZM431.737 22.373C432.439 22.672 432.738 23.205 432.738 23.868C432.738 25.142 431.672 26.143 429.54 26.143C427.369 26.143 426.42 25.103 426.355 23.764H428.123C428.123 24.349 428.695 24.739 429.592 24.739C430.411 24.739 430.905 24.388 430.905 23.907C430.905 23.4 430.346 23.153 429.566 23.153H428.76V21.879H429.423C429.865 21.879 430.606 21.788 430.606 21.203C430.606 20.735 430.151 20.462 429.436 20.462C428.669 20.462 428.201 20.813 428.201 21.333H426.42C426.511 20.15 427.499 19.058 429.54 19.058C431.347 19.058 432.426 19.903 432.426 21.112C432.426 21.567 432.27 22.048 431.737 22.373ZM438.319 22.308C439.099 22.438 439.671 23.075 439.671 23.907C439.671 25.077 438.722 26 436.928 26H433.717V19.227H436.72C438.293 19.227 439.229 19.799 439.229 20.917C439.229 21.775 438.774 22.191 438.319 22.308ZM436.811 20.618H435.342V21.918H436.811C437.266 21.918 437.604 21.684 437.604 21.268C437.604 20.826 437.266 20.618 436.811 20.618ZM435.342 24.609H437.084C437.643 24.609 438.033 24.31 438.033 23.868C438.033 23.413 437.643 23.127 437.084 23.127H435.342V24.609ZM443.926 26.13C441.794 26.13 440.26 24.661 440.26 22.594C440.26 20.553 441.794 19.058 443.926 19.058C446.071 19.058 447.605 20.553 447.605 22.594C447.605 24.661 446.071 26.13 443.926 26.13ZM443.926 24.466C445.018 24.466 445.824 23.673 445.824 22.594C445.824 21.502 445.018 20.722 443.926 20.722C442.847 20.722 442.054 21.502 442.054 22.594C442.054 23.673 442.847 24.466 443.926 24.466ZM453.403 21.879V19.201H455.223V26H453.403V23.478H450.504V26H448.684V19.201H450.504V21.879H453.403ZM459.972 26.13C457.84 26.13 456.306 24.661 456.306 22.594C456.306 20.553 457.84 19.058 459.972 19.058C462.117 19.058 463.651 20.553 463.651 22.594C463.651 24.661 462.117 26.13 459.972 26.13ZM459.972 24.466C461.064 24.466 461.87 23.673 461.87 22.594C461.87 21.502 461.064 20.722 459.972 20.722C458.893 20.722 458.1 21.502 458.1 22.594C458.1 23.673 458.893 24.466 459.972 24.466ZM468.189 22.386L471.283 26H469.099L466.486 22.841C466.564 23.569 466.577 24.518 466.577 26H464.731V19.201H466.577C466.577 20.67 466.577 21.411 466.512 21.905L469.086 19.201H471.257L468.189 22.386Z" fill="white"/>
</svg>
