<svg width="54" height="54" viewBox="0 0 54 54" fill="none" xmlns="http://www.w3.org/2000/svg">
<circle cx="27" cy="27" r="26" transform="matrix(-1 0 0 1 54 0)" stroke="white" stroke-opacity="0.19" stroke-width="2"/>
<path d="M19.2662 26.3706L25.6299 20.2456C25.8013 20.0862 26.031 19.998 26.2693 20C26.5077 20.002 26.7357 20.094 26.9043 20.2563C27.0728 20.4185 27.1684 20.638 27.1705 20.8674C27.1726 21.0968 27.0809 21.3178 26.9153 21.4829L22.1035 26.1142H34.0909C34.332 26.1142 34.5632 26.2064 34.7337 26.3705C34.9042 26.5346 35 26.7572 35 26.9892C35 27.2213 34.9042 27.4439 34.7337 27.608C34.5632 27.7721 34.332 27.8642 34.0909 27.8642H22.1035L26.9153 32.4956C27.0022 32.5763 27.0714 32.6729 27.1191 32.7796C27.1667 32.8864 27.1918 33.0012 27.1928 33.1174C27.1939 33.2336 27.1709 33.3488 27.1252 33.4563C27.0795 33.5639 27.012 33.6616 26.9266 33.7437C26.8412 33.8259 26.7397 33.8908 26.628 33.9348C26.5163 33.9788 26.3966 34.001 26.2759 34C26.1552 33.999 26.0359 33.9748 25.925 33.929C25.814 33.8831 25.7137 33.8164 25.6299 33.7329L19.2662 27.6079C19.0957 27.4438 19 27.2213 19 26.9892C19 26.7572 19.0957 26.5347 19.2662 26.3706Z" fill="white"/>
</svg>
