<svg width="46" height="46" viewBox="0 0 46 46" fill="none" xmlns="http://www.w3.org/2000/svg">
<circle cx="23" cy="23" r="23" fill="#0A0A0A"/>
<path d="M33.9203 23.8846C33.7553 22.1167 33.4835 21.7724 33.3808 21.6429C33.1447 21.3436 32.767 21.1481 32.3673 20.9429C32.3447 20.9315 32.3252 20.9152 32.3103 20.8954C32.2954 20.8755 32.2855 20.8527 32.2815 20.8286C32.2774 20.8045 32.2793 20.7798 32.287 20.7565C32.2946 20.7332 32.3078 20.712 32.3256 20.6944C32.3996 20.6227 32.4565 20.5366 32.4923 20.442C32.5282 20.3474 32.5421 20.2465 32.5332 20.1462C32.516 19.9684 32.4294 19.8033 32.2905 19.6836C32.1517 19.5639 31.9708 19.4984 31.7837 19.5H31.0686C31.038 19.5002 31.0074 19.5021 30.9769 19.5057C30.9561 19.497 30.9344 19.4902 30.9123 19.4851C30.4887 18.6307 29.9089 17.4608 28.7069 16.8899C26.9242 16.0437 23.6402 16 22.9985 16C22.3567 16 19.0727 16.0437 17.2923 16.8886C16.0904 17.4595 15.5105 18.6294 15.0869 19.4838L15.0833 19.4908C15.0621 19.4936 15.0414 19.4986 15.0214 19.5057C14.991 19.5021 14.9604 19.5002 14.9297 19.5H14.2132C14.0262 19.4984 13.8453 19.5639 13.7064 19.6836C13.5676 19.8033 13.481 19.9684 13.4637 20.1462C13.4556 20.2462 13.4702 20.3467 13.5065 20.4409C13.5428 20.5351 13.6 20.6206 13.6742 20.6918C13.6919 20.7093 13.7051 20.7306 13.7128 20.7539C13.7204 20.7772 13.7223 20.8018 13.7182 20.8259C13.7142 20.85 13.7043 20.8729 13.6895 20.8927C13.6746 20.9126 13.655 20.9288 13.6324 20.9402C13.2327 21.1467 12.8532 21.3423 12.6189 21.6402C12.5162 21.7715 12.2449 22.1141 12.0794 23.882C11.9877 24.8769 11.9739 25.9067 12.0459 26.57C12.1967 27.9481 12.4796 28.7811 12.4915 28.8157C12.5349 28.9415 12.6148 29.0529 12.7219 29.1371C12.829 29.2213 12.9589 29.2747 13.0966 29.2912V29.3C13.0966 29.4857 13.1738 29.6637 13.3114 29.795C13.4489 29.9263 13.6355 30 13.83 30H16.3971C16.5916 30 16.7781 29.9263 16.9157 29.795C17.0532 29.6637 17.1305 29.4857 17.1305 29.3C17.5252 29.3 17.7998 29.2326 18.0908 29.1609C18.5111 29.0528 18.9407 28.9809 19.3744 28.9461C20.7729 28.8188 22.1637 28.775 22.9985 28.775C23.8163 28.775 25.2685 28.8188 26.6694 28.9461C27.1048 28.981 27.536 29.0532 27.9579 29.1617C28.2366 29.23 28.5011 29.293 28.8674 29.2996C28.8674 29.4852 28.9447 29.6633 29.0822 29.7945C29.2198 29.9258 29.4063 29.9996 29.6008 29.9996H32.1679C32.3624 29.9996 32.5489 29.9258 32.6865 29.7945C32.824 29.6633 32.9013 29.4852 32.9013 29.2996V29.2943C33.0393 29.2781 33.1696 29.2248 33.2771 29.1406C33.3845 29.0564 33.4647 28.9448 33.5082 28.8187C33.5202 28.7842 33.803 27.9512 33.9538 26.5731C34.0258 25.9094 34.0129 24.8813 33.9203 23.8846ZM16.4126 20.0823C16.7794 19.3386 17.1988 18.4968 17.9455 18.142C19.0246 17.6293 21.2611 17.3982 22.9985 17.3982C24.7358 17.3982 26.9724 17.6275 28.0514 18.142C28.7982 18.4968 29.2158 19.339 29.5843 20.0823L29.6302 20.1772C29.657 20.2313 29.6688 20.291 29.6646 20.3507C29.6603 20.4103 29.6402 20.4679 29.606 20.518C29.5718 20.5681 29.5247 20.6091 29.4692 20.6369C29.4138 20.6647 29.3517 20.6784 29.2891 20.6769C27.7658 20.6375 24.557 20.5115 22.9985 20.5115C21.4399 20.5115 18.2311 20.6406 16.7056 20.6799C16.6429 20.6815 16.5809 20.6677 16.5254 20.6399C16.47 20.6121 16.4229 20.5712 16.3887 20.5211C16.3545 20.471 16.3343 20.4134 16.3301 20.3537C16.3258 20.2941 16.3377 20.2344 16.3645 20.1803C16.3805 20.1479 16.3975 20.1151 16.4126 20.0823ZM16.9595 23.5661C16.171 23.6567 15.3774 23.7014 14.5832 23.7C14.0973 23.7 13.5962 23.5687 13.5032 23.1557C13.4394 22.8779 13.4463 22.7217 13.4807 22.5647C13.5096 22.4313 13.5554 22.3341 13.7846 22.3C14.3805 22.2125 14.7138 22.3223 15.6893 22.5966C16.3361 22.7782 16.8027 23.0201 17.0686 23.2117C17.202 23.3062 17.131 23.553 16.9595 23.5661ZM27.1076 27.1536C26.5043 27.2192 25.2978 27.1952 23.0122 27.1952C20.7266 27.1952 19.5206 27.2192 18.9173 27.1536C18.2948 27.0876 17.5013 26.5258 18.0432 26.0253C18.4039 25.6954 19.2456 25.4487 20.3663 25.31C21.4871 25.1713 21.9616 25.1 23.0076 25.1C24.0537 25.1 24.48 25.1438 25.649 25.3104C26.8179 25.4771 27.7012 25.7269 27.9721 26.0258C28.4663 26.5612 27.7296 27.0841 27.1076 27.1562V27.1536ZM32.4938 23.1553C32.4021 23.5701 31.8979 23.6996 31.4138 23.6996C30.6044 23.6997 29.7956 23.655 28.9916 23.5657C28.8513 23.553 28.7862 23.3181 28.9284 23.2113C29.1901 23.0149 29.6618 22.7778 30.3077 22.5962C31.2832 22.3219 31.8456 22.2121 32.3288 22.3035C32.4466 22.3258 32.5089 22.4466 32.5163 22.5223C32.5486 22.733 32.541 22.9476 32.4938 23.1557V23.1553Z" fill="white"/>
</svg>
