<svg width="54" height="54" viewBox="0 0 54 54" fill="none" xmlns="http://www.w3.org/2000/svg">
<circle cx="27" cy="27" r="26" stroke="#EBEBEB" stroke-width="2"/>
<path d="M34.7338 26.3706L28.3701 20.2456C28.1987 20.0862 27.969 19.998 27.7307 20C27.4923 20.002 27.2643 20.094 27.0957 20.2563C26.9272 20.4185 26.8316 20.638 26.8295 20.8674C26.8274 21.0968 26.9191 21.3178 27.0847 21.4829L31.8965 26.1142H19.9091C19.668 26.1142 19.4368 26.2064 19.2663 26.3705C19.0958 26.5346 19 26.7572 19 26.9892C19 27.2213 19.0958 27.4439 19.2663 27.608C19.4368 27.7721 19.668 27.8642 19.9091 27.8642H31.8965L27.0847 32.4956C26.9978 32.5763 26.9286 32.6729 26.8809 32.7796C26.8333 32.8864 26.8082 33.0012 26.8072 33.1174C26.8061 33.2336 26.8291 33.3488 26.8748 33.4563C26.9205 33.5639 26.988 33.6616 27.0734 33.7437C27.1588 33.8259 27.2603 33.8908 27.372 33.9348C27.4837 33.9788 27.6034 34.001 27.7241 34C27.8448 33.999 27.9641 33.9748 28.075 33.929C28.186 33.8831 28.2863 33.8164 28.3701 33.7329L34.7338 27.6079C34.9043 27.4438 35 27.2213 35 26.9892C35 26.7572 34.9043 26.5347 34.7338 26.3706Z" fill="#1F1F1F"/>
</svg>
