<svg width="112" height="112" viewBox="0 0 112 112" fill="none" xmlns="http://www.w3.org/2000/svg">
<rect width="112" height="112" rx="20" fill="white"/>
<path d="M69.5 30H40.7C39.9846 30.0021 39.2991 30.2766 38.7932 30.7638C38.2873 31.2509 38.0021 31.9111 38 32.6V50.8H34.4C34.2859 50.7983 34.1726 50.819 34.067 50.8607L29.567 52.594C29.3995 52.6582 29.256 52.7694 29.1549 52.9131C29.0538 53.0568 28.9998 53.2264 29 53.4V65.5333C29.0008 65.6761 29.0381 65.8164 29.1088 65.9419C29.1794 66.0674 29.2812 66.1742 29.405 66.2527L32.114 67.986C32.2596 68.0824 32.4323 68.1338 32.609 68.1333H38V79.4C38.0021 80.0889 38.2873 80.7491 38.7932 81.2362C39.2991 81.7234 39.9846 81.9979 40.7 82H69.5C70.2154 81.9979 70.9009 81.7234 71.4068 81.2362C71.9127 80.7491 72.1979 80.0889 72.2 79.4V32.6C72.1979 31.9111 71.9127 31.2509 71.4068 30.7638C70.9009 30.2766 70.2154 30.0021 69.5 30ZM37.91 57.7333H38V66.4H32.879L30.8 65.0653V53.9893L34.571 52.5333H45.2C45.6774 52.5333 46.1352 52.716 46.4728 53.041C46.8104 53.3661 47 53.807 47 54.2667C47 54.7264 46.8104 55.1673 46.4728 55.4923C46.1352 55.8174 45.6774 56 45.2 56H37.1C36.8613 56 36.6324 56.0913 36.4636 56.2538C36.2948 56.4164 36.2 56.6368 36.2 56.8667C36.1979 57.5556 35.9127 58.2157 35.4068 58.7029C34.9009 59.19 34.2154 59.4646 33.5 59.4667V61.2C34.537 61.1987 35.5418 60.8533 36.3451 60.2218C37.1484 59.5903 37.7011 58.7114 37.91 57.7333ZM70.4 79.4C70.4 79.6299 70.3052 79.8503 70.1364 80.0128C69.9676 80.1754 69.7387 80.2667 69.5 80.2667H40.7C40.4613 80.2667 40.2324 80.1754 40.0636 80.0128C39.8948 79.8503 39.8 79.6299 39.8 79.4V57.7333H45.2C46.1548 57.7333 47.0705 57.3681 47.7456 56.718C48.4207 56.0678 48.8 55.1861 48.8 54.2667C48.8 53.3472 48.4207 52.4655 47.7456 51.8154C47.0705 51.1652 46.1548 50.8 45.2 50.8H39.8V32.6C39.8 32.3701 39.8948 32.1497 40.0636 31.9872C40.2324 31.8246 40.4613 31.7333 40.7 31.7333H69.5C69.7387 31.7333 69.9676 31.8246 70.1364 31.9872C70.3052 32.1497 70.4 32.3701 70.4 32.6V79.4Z" fill="#1F1F1F"/>
<path d="M55.1 45.6C55.3387 45.6 55.5676 45.5086 55.7363 45.3461L60.8276 40.4433L59.555 39.2179L55.1 43.5079L53.1902 41.6688L51.9176 42.8943L54.4637 45.3461C54.6324 45.5086 54.8613 45.6 55.1 45.6Z" fill="#1F1F1F"/>
<path d="M63.569 37.0113L55.469 33.5447C55.3533 33.4933 55.2274 33.4667 55.1 33.4667C54.9726 33.4667 54.8467 33.4933 54.731 33.5447L46.631 37.0113C46.4722 37.0785 46.3373 37.189 46.2429 37.3291C46.1486 37.4693 46.0989 37.633 46.1 37.8V43.3553C46.0996 44.456 46.3416 45.5442 46.8101 46.5481C47.2787 47.5521 47.963 48.4489 48.818 49.1793L54.506 54.05C54.6702 54.1889 54.8814 54.2656 55.1 54.2656C55.3186 54.2656 55.5298 54.1889 55.694 54.05L61.382 49.1793C62.237 48.4489 62.9213 47.5521 63.3899 46.5481C63.8584 45.5442 64.1004 44.456 64.1 43.3553V37.8C64.1011 37.633 64.0514 37.4693 63.9571 37.3291C63.8627 37.189 63.7278 37.0785 63.569 37.0113ZM62.3 43.3553C62.2989 44.2117 62.1099 45.0582 61.7454 45.8393C61.381 46.6204 60.8492 47.3186 60.185 47.888L55.1 52.2387L50.015 47.888C49.3508 47.3186 48.819 46.6204 48.4546 45.8393C48.0901 45.0582 47.9011 44.2117 47.9 43.3553V38.3633L55.1 35.278L62.3 38.3633V43.3553ZM82.1 47.3333H79.4V44.7333C79.4 44.0438 79.1155 43.3825 78.6092 42.8949C78.1028 42.4073 77.4161 42.1333 76.7 42.1333C75.9839 42.1333 75.2972 42.4073 74.7908 42.8949C74.2845 43.3825 74 44.0438 74 44.7333V74.2C74.0001 74.2701 74.0092 74.34 74.027 74.408L75.827 81.3413C75.8758 81.5287 75.9882 81.6951 76.1463 81.8139C76.3045 81.9328 76.4994 81.9973 76.7 81.9973C76.9006 81.9973 77.0955 81.9328 77.2537 81.8139C77.4118 81.6951 77.5242 81.5287 77.573 81.3413L79.373 74.408C79.3908 74.34 79.3999 74.2701 79.4 74.2V49.0667H81.2V56.8667H83V48.2C83 47.9701 82.9052 47.7497 82.7364 47.5872C82.5676 47.4246 82.3387 47.3333 82.1 47.3333ZM76.7 77.5627L76.052 75.0667H77.348L76.7 77.5627ZM77.6 73.3333H75.8V49.0667H77.6V73.3333ZM77.6 47.3333H75.8V44.7333C75.8 44.5035 75.8948 44.283 76.0636 44.1205C76.2324 43.958 76.4613 43.8667 76.7 43.8667C76.9387 43.8667 77.1676 43.958 77.3364 44.1205C77.5052 44.283 77.6 44.5035 77.6 44.7333V47.3333ZM43.4 61.2H47V62.9333H43.4V61.2ZM48.8 61.2H66.8V62.9333H48.8V61.2ZM43.4 66.4H47V68.1333H43.4V66.4ZM48.8 66.4H66.8V68.1333H48.8V66.4ZM43.4 71.6H47V73.3333H43.4V71.6ZM48.8 71.6H66.8V73.3333H48.8V71.6ZM43.4 76.8H47V78.5333H43.4V76.8ZM48.8 76.8H66.8V78.5333H48.8V76.8Z" fill="#1F1F1F"/>
</svg>
